<?xml version="1.0" standalone="no"?>
<!DOCTYPE svg PUBLIC "-//W3C//DTD SVG 20010904//EN"
 "http://www.w3.org/TR/2001/REC-SVG-20010904/DTD/svg10.dtd">
<svg version="1.0" xmlns="http://www.w3.org/2000/svg"
 width="700.000000pt" height="700.000000pt" viewBox="0 0 700.000000 700.000000"
 preserveAspectRatio="xMidYMid meet">
<metadata>
Created by potrace 1.11, written by Peter Selinger 2001-2013
</metadata>
<g transform="translate(0.000000,700.000000) scale(0.100000,-0.100000)"
fill="#000000" stroke="none">
<path d="M2030 6984 c-346 -44 -717 -183 -997 -371 -274 -184 -518 -436 -693
-718 -119 -191 -233 -472 -285 -702 -55 -245 -55 -246 -55 -1691 0 -1369 1
-1427 41 -1627 91 -459 303 -858 634 -1191 382 -383 859 -613 1400 -674 71 -8
505 -10 1485 -8 l1385 3 125 24 c498 93 903 304 1250 651 349 349 562 759 652
1257 l23 128 0 1435 0 1435 -23 128 c-90 499 -302 908 -652 1257 -346 347
-747 556 -1250 652 -115 22 -119 22 -1525 24 -1142 2 -1430 -1 -1515 -12z
m1990 -1329 c576 -81 935 -320 1086 -724 104 -277 107 -666 7 -986 -143 -460
-580 -823 -1143 -950 -177 -40 -329 -56 -545 -56 -211 -1 -314 8 -483 42 -57
11 -107 18 -110 14 -4 -3 -72 -372 -152 -818 l-145 -812 -303 -3 -302 -2 5 22
c8 34 775 4227 775 4237 0 6 177 24 570 55 119 10 631 -3 740 -19z"/>
<path d="M3450 5156 c-47 -7 -122 -21 -167 -31 l-82 -18 -10 -51 c-6 -28 -67
-373 -136 -766 -69 -393 -128 -727 -131 -742 -5 -24 -1 -28 51 -47 181 -68
541 -76 804 -20 329 72 577 243 696 484 73 146 88 219 88 425 0 148 -3 187
-21 255 -56 208 -165 347 -335 430 -148 71 -227 87 -467 91 -134 2 -234 -2
-290 -10z"/>
</g>
</svg>
